Demon.Of.Paradise.1987.XviD-NvadR 
http://www.imdb.com/title/tt0092870/

Hunters become the hunted when illegal dynamite disturbs 
the ageold slumber of a carnivorous lizardman. Resort owner 
Angela, joins forces with Sheriff Keefer to save tourists 
from the beast's path of death.

--------------------- SCREENSHOTS ----------------------- 
http://s18.postimage.org/nm9ee4uqv/1eri38uf8ujafl09u90urw09eur0fajd9.jpg
 
http://s17.postimage.org/7506sgyhp/2rgijsfdo89foij9405u0aag.jpg
 
http://s12.postimage.org/h3q8ziye3/3jdloeit89eu0f98goijlkdjljflhurh48.jpg
 
http://s11.postimage.org/rd6m4z39t/4eduhfd9865498origofgjl845.jpg
 
http://s9.postimage.org/68at3vqyl/5der573745utfiru950rt.jpg
 
http://s14.postimage.org/z2boht0fz/6riuoajgfldj05490_uadfljg.jpg
----------------------------------------------------------

General

Complete name                    : Demon.Of.Paradise.1987.XviD-NvadR
Format                           : AVI
Format/Info                      : Audio Video Interleave
File size                        : 700 MiB
Duration                         : 1h 27mn
Overall bit rate                 : 1 120 Kbps
Writing application              : VirtualDubMod 1.5.10.2 (build 2542/release)
Writing library                  : VirtualDubMod build 2542/release

Video

Format                           : MPEG-4 Visual
Format profile                   : Advanced Simple@L5
Format settings, BVOP            : 2
Format settings, QPel            : No
Format settings, GMC             : No warppoints
Format settings, Matrix          : Default (H.263)
Muxing mode                      : Packed bitstream
Codec ID                         : XVID
Codec ID/Hint                    : XviD
Duration                         : 1h 27mn
Bit rate                         : 999 Kbps
Width                            : 608 pixels
Height                           : 342 pixels
Display aspect ratio             : 16:9
Frame rate                       : 23.976 fps
Color space                      : YUV
Chroma subsampling               : 4:2:0
Bit depth                        : 8 bits
Scan type                        : Progressive
Compression mode                 : Lossy
Bits/(Pixel*Frame)               : 0.200
Stream size                      : 624 MiB (89%)
Writing library                  : XviD 64

Audio

Audio Language                   : English
Format                           : AC-3
Format/Info                      : Audio Coding 3
Mode extension                   : CM (complete main)
Codec ID                         : 2000
Duration                         : 1h 27mn
Bit rate mode                    : Constant
Bit rate                         : 112 Kbps
Channel(s)                       : 2 channels
Channel positions                : Front: L R
Sampling rate                    : 48.0 KHz
Bit depth                        : 16 bits
Compression mode                 : Lossy
Stream size                      : 70.0 MiB (10%)
Alignment                        : Aligned on interleaves
Interleave, duration             : 42 ms (1.00 video frame)
Interleave, preload duration     : 512 ms

Source

Region 1 (NTSC) DVD9 720 x 480 29.976fps 1.78:1 (16:9) Anamorphic
         Stereo 2.0 channel Dolby 192kbps 48000kHz
         
NO SUBTITLES
 
http://torrent-stats.info/c301/155003daa.png